<svg width="16" height="21" viewBox="0 0 16 21" fill="none" xmlns="http://www.w3.org/2000/svg">
<path id="Vector" d="M2.80694 0.469219L3.97394 0.117459C5.29645 -0.281181 6.7094 0.363049 7.2758 1.62288L8.1775 3.6286C8.6602 4.70243 8.4058 5.96444 7.5448 6.76739L6.0505 8.16088C6.0068 8.20158 5.9791 8.25658 5.9725 8.31598C5.9281 8.71308 6.1974 9.48648 6.8176 10.5608C7.2687 11.3421 7.6769 11.8899 8.0244 12.1981C8.2665 12.4128 8.3998 12.4592 8.4565 12.4423L10.4669 11.8277C11.5925 11.4836 12.8123 11.8939 13.501 12.8484L14.7817 14.6234C15.5878 15.7406 15.4428 17.2819 14.4426 18.2292L13.5562 19.0686C12.5998 19.9744 11.2382 20.3119 9.9695 19.9578C7.2154 19.1891 4.74608 16.8649 2.53421 13.0339C0.319259 9.19748 -0.457931 5.893 0.258519 3.12121C0.586389 1.85273 1.55252 0.847339 2.80694 0.469219ZM3.23984 1.90539C2.48719 2.13226 1.90751 2.7355 1.71079 3.49659C1.10814 5.8281 1.797 8.75698 3.83325 12.2839C5.8668 15.806 8.0557 17.8663 10.3727 18.513C11.134 18.7255 11.9509 18.523 12.5248 17.9795L13.4111 17.1401C13.8658 16.7095 13.9317 16.0089 13.5653 15.5011L12.2846 13.7261C11.9715 13.2923 11.417 13.1057 10.9054 13.2622L8.8901 13.8783C7.7204 14.227 6.6587 13.2855 5.5186 11.3108C4.75029 9.98008 4.3922 8.95138 4.48177 8.14948C4.52817 7.734 4.72174 7.3489 5.02746 7.06381L6.5218 5.67036C6.9132 5.30538 7.0288 4.73174 6.8094 4.24364L5.9077 2.23792C5.65026 1.66527 5.00798 1.37243 4.40684 1.55363L3.23984 1.90539Z" fill="#71839B"/>
</svg>
