<svg width="20" height="20" viewBox="0 0 20 20" fill="none" xmlns="http://www.w3.org/2000/svg">
<g id="u:home-alt">
<path id="Vector" d="M16.6667 6.66666L11.6667 2.28333C11.2083 1.87337 10.6149 1.64672 10 1.64672C9.38506 1.64672 8.79169 1.87337 8.33334 2.28333L3.33334 6.66666C3.06864 6.90339 2.85742 7.19379 2.71373 7.51853C2.57004 7.84327 2.49718 8.1949 2.5 8.55V15.8333C2.5 16.4964 2.76339 17.1323 3.23224 17.6011C3.70108 18.0699 4.33696 18.3333 5 18.3333H15C15.663 18.3333 16.2989 18.0699 16.7678 17.6011C17.2366 17.1323 17.5 16.4964 17.5 15.8333V8.54166C17.5016 8.18797 17.4282 7.83795 17.2846 7.51473C17.1409 7.19152 16.9303 6.90246 16.6667 6.66666V6.66666ZM11.6667 16.6667H8.33334V12.5C8.33334 12.279 8.42113 12.067 8.57741 11.9107C8.73369 11.7545 8.94566 11.6667 9.16667 11.6667H10.8333C11.0543 11.6667 11.2663 11.7545 11.4226 11.9107C11.5789 12.067 11.6667 12.279 11.6667 12.5V16.6667ZM15.8333 15.8333C15.8333 16.0543 15.7455 16.2663 15.5893 16.4226C15.433 16.5789 15.221 16.6667 15 16.6667H13.3333V12.5C13.3333 11.837 13.0699 11.2011 12.6011 10.7322C12.1323 10.2634 11.4964 10 10.8333 10H9.16667C8.50363 10 7.86774 10.2634 7.3989 10.7322C6.93006 11.2011 6.66667 11.837 6.66667 12.5V16.6667H5C4.77899 16.6667 4.56703 16.5789 4.41075 16.4226C4.25447 16.2663 4.16667 16.0543 4.16667 15.8333V8.54166C4.16682 8.42334 4.19216 8.30641 4.24102 8.19865C4.28987 8.09088 4.36111 7.99476 4.45 7.91666L9.45 3.54166C9.60208 3.40806 9.79758 3.33439 10 3.33439C10.2024 3.33439 10.3979 3.40806 10.55 3.54166L15.55 7.91666C15.6389 7.99476 15.7101 8.09088 15.759 8.19865C15.8078 8.30641 15.8332 8.42334 15.8333 8.54166V15.8333Z" fill="#71839B"/>
</g>
</svg>
