<svg width="18" height="17" viewBox="0 0 18 17" fill="none" xmlns="http://www.w3.org/2000/svg">
<path id="Vector" d="M5.56736 2.96712C5.95676 2.75908 6.3758 2.69216 6.78377 2.69214C7.25606 2.69211 7.80458 2.84726 8.2476 3.2103C8.71143 3.59037 9.02669 4.17347 9.02669 4.93438C9.02669 5.80875 8.40882 6.28344 8.06045 6.55107C8.03345 6.57188 8.00797 6.59144 7.98455 6.60983C7.60362 6.90921 7.45666 7.06918 7.45666 7.40158C7.45666 7.77318 7.15543 8.07445 6.78381 8.07445C6.4122 8.07445 6.11094 7.77318 6.11094 7.40158C6.11094 6.3842 6.74904 5.86918 7.15308 5.55168C7.61358 5.1898 7.68095 5.10919 7.68095 4.93438C7.68095 4.57818 7.54763 4.37657 7.39467 4.25122C7.22094 4.10886 6.98443 4.03787 6.78384 4.03788C6.51896 4.0379 6.3369 4.08174 6.20146 4.1541C6.07276 4.22285 5.93659 4.34357 5.80531 4.58572C5.62819 4.91241 5.21977 5.03366 4.89308 4.85655C4.56639 4.67943 4.44514 4.27101 4.62225 3.94431C4.85881 3.50801 5.17121 3.17874 5.56736 2.96712ZM6.78396 10.766C7.27947 10.766 7.68122 10.3644 7.68122 9.86886C7.68122 9.37327 7.27947 8.97161 6.78396 8.97161C6.28844 8.97161 5.88674 9.37327 5.88674 9.86886C5.88674 10.3644 6.28844 10.766 6.78396 10.766ZM6.78395 0C3.06779 0 0.0552467 3.01254 0.0552467 6.72871C0.0552467 7.7451 0.281035 8.71035 0.685637 9.57576C0.457731 10.4711 0.203099 11.4695 0.035877 12.1249C-0.173179 12.9442 0.564673 13.6896 1.38498 13.4924C2.05805 13.3306 3.0925 13.0823 4.01432 12.8626C4.85972 13.2449 5.79782 13.4574 6.78395 13.4574C10.5001 13.4574 13.5127 10.4448 13.5127 6.72871C13.5127 3.01254 10.5001 0 6.78395 0ZM1.40099 6.72871C1.40099 3.75578 3.81102 1.34574 6.78395 1.34574C9.75689 1.34574 12.1669 3.75578 12.1669 6.72871C12.1669 9.70163 9.75689 12.1117 6.78395 12.1117C5.92201 12.1117 5.10921 11.9096 4.38856 11.5509L4.17018 11.4421L3.93287 11.4986C3.10503 11.6957 2.1486 11.925 1.4318 12.0971C1.61011 11.3982 1.84621 10.472 2.05092 9.66753L2.11388 9.42001L1.99679 9.19303C1.61619 8.45538 1.40099 7.61815 1.40099 6.72871ZM11.2698 16.149C9.50291 16.149 7.8951 15.4679 6.69453 14.3541C6.72432 14.3545 6.75414 14.3547 6.784 14.3547C7.42813 14.3547 8.05363 14.2747 8.65105 14.1244C9.4262 14.5568 10.3192 14.8032 11.2698 14.8032C12.1317 14.8032 12.9445 14.6011 13.6652 14.2423L13.8836 14.1336L14.1209 14.1901C14.9477 14.387 15.8839 14.5901 16.5784 14.7369C16.4214 14.0636 16.2072 13.1623 16.0028 12.359L15.9399 12.1116L16.0569 11.8846C16.4375 11.147 16.6527 10.3097 16.6527 9.42028C16.6527 7.52296 15.6712 5.85502 14.1882 4.89635C14.0283 4.24747 13.7851 3.63131 13.4709 3.05978C16.1061 3.97159 17.9985 6.4749 17.9985 9.42028C17.9985 10.4369 17.7726 11.4024 17.3678 12.2679C17.5948 13.1722 17.8247 14.1518 17.9705 14.7828C18.1539 15.5768 17.4546 16.2954 16.654 16.1281C16.0016 15.9917 14.9766 15.773 14.0401 15.5538C13.1945 15.9363 12.2562 16.149 11.2698 16.149Z" fill="#71839B"/>
</svg>
