<svg width="20" height="18" viewBox="0 0 20 18" fill="none" xmlns="http://www.w3.org/2000/svg">
<path id="Vector" d="M6.50215 8.69786C7.05562 8.69786 7.5043 9.14656 7.5043 9.70006C7.5043 10.2536 7.05562 10.7022 6.50215 10.7022C5.94868 10.7022 5.5 10.2536 5.5 9.70006C5.5 9.14656 5.94868 8.69786 6.50215 8.69786ZM10 1.55206V7.69786L10.0005 8.20286L17.442 8.20186L15.7196 6.47813C15.4534 6.21182 15.4292 5.79515 15.6471 5.50157L15.7198 5.41747C15.9861 5.15125 16.4027 5.12711 16.6963 5.34502L16.7804 5.41765L19.777 8.41526C20.043 8.68136 20.0674 9.09756 19.85 9.39116L19.7775 9.47526L16.7809 12.4787C16.4884 12.772 16.0135 12.7725 15.7203 12.48C15.4537 12.214 15.429 11.7974 15.6465 11.5035L15.7191 11.4193L17.432 9.70186L10.0005 9.70286L10 16.4479C10 16.9143 9.5788 17.2676 9.1196 17.1865L0.61955 15.6852C0.26121 15.6219 0 15.3105 0 14.9466V2.94789C0 2.58058 0.26601 2.26732 0.62847 2.2078L9.1285 0.811972C9.5851 0.736992 10 1.08933 10 1.55206ZM8.5 2.43526L1.5 3.58477V14.3175L8.5 15.5539V2.43526ZM11 15.6992L11.7652 15.6994L11.867 15.6925C12.2335 15.6427 12.5158 15.3283 12.5152 14.9481L12.508 10.6979H11V15.6992ZM11.002 7.19789L11 5.92323V2.19788L11.7453 2.19789C12.1245 2.19789 12.4381 2.47941 12.4883 2.845L12.4953 2.94665L12.502 7.19789H11.002Z" fill="#2D68FE"/>
</svg>
