<svg width="20" height="20" viewBox="0 0 20 20" fill="none" xmlns="http://www.w3.org/2000/svg">
<path id="Vector" d="M3.33323 14.0688C3.87134 14.301 4.47878 14.3034 5.00069 14.0807L5 17.75C5 18.1297 5.3135 18.4435 5.72026 18.4932L5.83333 18.5H14.1667C14.5886 18.5 14.9372 18.2178 14.9924 17.8518L15 17.75L14.9994 14.0697C15.5486 14.3004 16.154 14.2981 16.6673 14.0815L16.6667 17.75C16.6667 18.9409 15.6387 19.9156 14.3378 19.9948L14.1667 20H5.83333C4.51016 20 3.42707 19.0748 3.3391 17.904L3.33323 17.75V14.0688ZM16.4236 6.96885C16.7193 7.23512 16.7462 7.65178 16.5042 7.94539L16.4236 8.0295L15.0667 9.2492H19.2708C19.6734 9.2491 20 9.5849 20 9.9991C20 10.3788 19.7258 10.6926 19.3699 10.7423L19.2709 10.7492H15.0667L16.4236 11.9705C16.7193 12.2368 16.7462 12.6534 16.5042 12.947L16.4236 13.0312C16.1277 13.2974 15.6647 13.3216 15.3384 13.1038L15.245 13.0312L12.6119 10.6639C12.3802 10.5383 12.2222 10.2882 12.2222 10.0001C12.2222 9.7121 12.38 9.462 12.6116 9.3363L15.245 6.96885C15.5704 6.67596 16.0981 6.67596 16.4236 6.96885ZM4.66154 6.89541L4.75501 6.96803L7.38846 9.3355C7.61999 9.4611 7.77778 9.7113 7.77778 9.9993C7.77778 10.2514 7.65682 10.4744 7.47136 10.6104L7.38809 10.6631L4.75501 13.0303L4.66154 13.1029C4.37156 13.2966 3.97354 13.299 3.68089 13.1101L3.5765 13.0303L3.49581 12.9462C3.28064 12.6852 3.27799 12.327 3.48784 12.0636L3.5765 11.9697L4.93333 10.7484H0.729078L0.630133 10.7415C0.274233 10.6918 0 10.378 0 9.9983C0 9.6186 0.274389 9.3048 0.630311 9.2552L0.729256 9.2484H4.93333L3.5765 8.0287L3.49581 7.94457C3.25376 7.65096 3.28064 7.23429 3.5765 6.96803C3.87236 6.70176 4.33531 6.67756 4.66154 6.89541ZM14.1667 0C15.4899 0 16.5729 0.92516 16.6609 2.09595L16.6667 2.25L16.6678 5.9176C16.1413 5.69288 15.5259 5.69304 14.9996 5.91808L15 2.25C15 1.8703 14.6864 1.55651 14.2798 1.50685L14.1667 1.5H5.83333C5.41144 1.5 5.06279 1.78215 5.00761 2.14823L5 2.25L5.00131 5.91754C4.47514 5.69227 3.85957 5.69189 3.33291 5.91647L3.33333 2.25C3.33333 1.05914 4.36129 0.0843599 5.66217 0.0051899L5.83333 0H14.1667Z" fill="#2D68FE"/>
</svg>
