<svg width="18" height="14" viewBox="0 0 18 14" fill="none" xmlns="http://www.w3.org/2000/svg">
<path id="Vector" d="M11.4545 8.75C9.27 8.75 4.90909 9.91375 4.90909 12.25V14H18V12.25C18 9.91375 13.6391 8.75 11.4545 8.75ZM4.09091 5.25V2.625H2.45455V5.25H0V7H2.45455V9.625H4.09091V7H6.54545V5.25M11.4545 7C12.3225 7 13.155 6.63125 13.7687 5.97487C14.3825 5.3185 14.7273 4.42826 14.7273 3.5C14.7273 2.57174 14.3825 1.6815 13.7687 1.02513C13.155 0.368749 12.3225 0 11.4545 0C10.5866 0 9.75413 0.368749 9.14038 1.02513C8.52662 1.6815 8.18182 2.57174 8.18182 3.5C8.18182 4.42826 8.52662 5.3185 9.14038 5.97487C9.75413 6.63125 10.5866 7 11.4545 7Z" fill="#2D68FE"/>
</svg>
