<svg width="19" height="16" viewBox="0 0 19 16" fill="none" xmlns="http://www.w3.org/2000/svg">
<path id="Vector" d="M7.33336 0.23439C6.418 0.23439 5.54013 0.598017 4.89287 1.24528C4.24561 1.89254 3.88198 2.77041 3.88198 3.68577C3.88198 4.60114 4.24561 5.47901 4.89287 6.12627C5.54013 6.77353 6.418 7.13716 7.33336 7.13716C8.24873 7.13716 9.1266 6.77353 9.77386 6.12627C10.4211 5.47901 10.7847 4.60114 10.7847 3.68577C10.7847 2.77041 10.4211 1.89254 9.77386 1.24528C9.1266 0.598017 8.24873 0.23439 7.33336 0.23439ZM13.3733 7.13716C13.2611 7.13716 13.1662 7.21481 13.1489 7.31835L12.985 8.45731C12.7261 8.56948 12.4759 8.70753 12.2516 8.86285L11.1817 8.43142C11.0867 8.43142 10.9746 8.43142 10.9142 8.54359L10.0513 10.0363C9.99956 10.1312 10.0168 10.2434 10.1031 10.3124L11.0177 11.02C11.0005 11.1666 10.9918 11.3047 10.9918 11.4514C10.9918 11.5981 11.0005 11.7361 11.0177 11.8828L10.1031 12.5903C10.0254 12.6594 9.99956 12.7715 10.0513 12.8665L10.9142 14.3592C10.9659 14.4713 11.0781 14.4713 11.1817 14.4713L12.2516 14.0399C12.4759 14.1952 12.7175 14.3419 12.985 14.4455L13.1489 15.5844C13.1662 15.688 13.2525 15.7656 13.3733 15.7656H15.099C15.1939 15.7656 15.2888 15.688 15.3061 15.5844L15.47 14.4455C15.7288 14.3333 15.9618 14.1952 16.1948 14.0399L17.2561 14.4713C17.3683 14.4713 17.4804 14.4713 17.5408 14.3592L18.4037 12.8665C18.4554 12.7715 18.4296 12.6594 18.3519 12.5903L17.4287 11.8828C17.4459 11.7361 17.4632 11.5981 17.4632 11.4514C17.4632 11.3047 17.4545 11.1666 17.4287 11.02L18.3433 10.3124C18.4209 10.2434 18.4468 10.1312 18.395 10.0363L17.5322 8.54359C17.4804 8.43142 17.3683 8.43142 17.2561 8.43142L16.1948 8.86285C15.9618 8.70753 15.7288 8.56085 15.4614 8.45731L15.2974 7.31835C15.2888 7.21481 15.1939 7.13716 15.099 7.13716H13.3733ZM7.33336 8.86285C3.51959 8.86285 0.430603 10.4073 0.430603 12.3142V14.0399H8.78295C8.39786 13.2313 8.19744 12.3471 8.19621 11.4514C8.19796 10.5845 8.3863 9.72814 8.74843 8.9405C8.29112 8.88873 7.81656 8.86285 7.33336 8.86285ZM14.2361 10.1571C14.9523 10.1571 15.5304 10.7352 15.5304 11.4514C15.5304 12.1675 14.9523 12.7457 14.2361 12.7457C13.5113 12.7457 12.9419 12.1675 12.9419 11.4514C12.9419 10.7352 13.52 10.1571 14.2361 10.1571Z" fill="#2D68FE"/>
</svg>
