<svg width="18" height="16" viewBox="0 0 18 16" fill="none" xmlns="http://www.w3.org/2000/svg">
<path id="Vector" d="M6.90276 0C5.9874 0 5.10953 0.363627 4.46227 1.01089C3.81501 1.65815 3.45138 2.53602 3.45138 3.45138C3.45138 4.36675 3.81501 5.24462 4.46227 5.89188C5.10953 6.53914 5.9874 6.90277 6.90276 6.90277C7.81813 6.90277 8.696 6.53914 9.34326 5.89188C9.99052 5.24462 10.3541 4.36675 10.3541 3.45138C10.3541 2.53602 9.99052 1.65815 9.34326 1.01089C8.696 0.363627 7.81813 0 6.90276 0ZM12.9427 6.90277C12.8305 6.90277 12.7356 6.98042 12.7183 7.08396L12.5544 8.22292C12.2955 8.33509 12.0453 8.47314 11.821 8.62846L10.7511 8.19703C10.6561 8.19703 10.544 8.19703 10.4836 8.3092L9.62072 9.80193C9.56895 9.89684 9.58621 10.009 9.6725 10.078L10.5871 10.7856C10.5699 10.9323 10.5612 11.0703 10.5612 11.217C10.5612 11.3637 10.5699 11.5017 10.5871 11.6484L9.6725 12.3559C9.59484 12.425 9.56895 12.5371 9.62072 12.6321L10.4836 14.1248C10.5353 14.237 10.6475 14.237 10.7511 14.237L11.821 13.8055C12.0453 13.9608 12.2869 14.1075 12.5544 14.2111L12.7183 15.35C12.7356 15.4536 12.8219 15.5312 12.9427 15.5312H14.6684C14.7633 15.5312 14.8582 15.4536 14.8755 15.35L15.0394 14.2111C15.2982 14.0989 15.5312 13.9608 15.7642 13.8055L16.8255 14.237C16.9377 14.237 17.0498 14.237 17.1102 14.1248L17.9731 12.6321C18.0248 12.5371 17.999 12.425 17.9213 12.3559L16.9981 11.6484C17.0153 11.5017 17.0326 11.3637 17.0326 11.217C17.0326 11.0703 17.0239 10.9323 16.9981 10.7856L17.9127 10.078C17.9903 10.009 18.0162 9.89684 17.9644 9.80193L17.1016 8.3092C17.0498 8.19703 16.9377 8.19703 16.8255 8.19703L15.7642 8.62846C15.5312 8.47314 15.2982 8.32646 15.0308 8.22292L14.8668 7.08396C14.8582 6.98042 14.7633 6.90277 14.6684 6.90277H12.9427ZM6.90276 8.62846C3.08899 8.62846 0 10.173 0 12.0798V13.8055H8.35234C7.96725 12.9969 7.76684 12.1127 7.76561 11.217C7.76736 10.3501 7.9557 9.49375 8.31783 8.70611C7.86052 8.65434 7.38596 8.62846 6.90276 8.62846ZM13.8055 9.92273C14.5217 9.92273 15.0998 10.5008 15.0998 11.217C15.0998 11.9332 14.5217 12.5113 13.8055 12.5113C13.0807 12.5113 12.5113 11.9332 12.5113 11.217C12.5113 10.5008 13.0894 9.92273 13.8055 9.92273Z" fill="#71839B"/>
</svg>
