<svg width="18" height="18" viewBox="0 0 18 18" fill="none" xmlns="http://www.w3.org/2000/svg">
<path id="Vector" d="M3 7.75C3 6.50736 4.00736 5.5 5.25 5.5C6.49264 5.5 7.5 6.50736 7.5 7.75C7.5 8.9926 6.49264 10 5.25 10C4.00736 10 3 8.9926 3 7.75ZM5.25 7C4.83579 7 4.5 7.3358 4.5 7.75C4.5 8.1642 4.83579 8.5 5.25 8.5C5.66421 8.5 6 8.1642 6 7.75C6 7.3358 5.66421 7 5.25 7ZM5.25 11C4.00736 11 3 12.0074 3 13.25C3 14.4926 4.00736 15.5 5.25 15.5C6.49264 15.5 7.5 14.4926 7.5 13.25C7.5 12.0074 6.49264 11 5.25 11ZM4.5 13.25C4.5 12.8358 4.83579 12.5 5.25 12.5C5.66421 12.5 6 12.8358 6 13.25C6 13.6642 5.66421 14 5.25 14C4.83579 14 4.5 13.6642 4.5 13.25ZM9 7.75C9 7.3358 9.3358 7 9.75 7H14.25C14.6642 7 15 7.3358 15 7.75C15 8.1642 14.6642 8.5 14.25 8.5H9.75C9.3358 8.5 9 8.1642 9 7.75ZM9.75 12.5C9.3358 12.5 9 12.8358 9 13.25C9 13.6642 9.3358 14 9.75 14H14.25C14.6642 14 15 13.6642 15 13.25C15 12.8358 14.6642 12.5 14.25 12.5H9.75ZM3 3.75C3 3.33579 3.33579 3 3.75 3H14.25C14.6642 3 15 3.33579 15 3.75C15 4.16421 14.6642 4.5 14.25 4.5H3.75C3.33579 4.5 3 4.16421 3 3.75ZM3.25 0C1.45507 0 0 1.45507 0 3.25V14.75C0 16.5449 1.45507 18 3.25 18H14.75C16.5449 18 18 16.5449 18 14.75V3.25C18 1.45507 16.5449 0 14.75 0H3.25ZM1.5 3.25C1.5 2.2835 2.2835 1.5 3.25 1.5H14.75C15.7165 1.5 16.5 2.2835 16.5 3.25V14.75C16.5 15.7165 15.7165 16.5 14.75 16.5H3.25C2.2835 16.5 1.5 15.7165 1.5 14.75V3.25Z" fill="#71839B"/>
</svg>
