<svg width="48" height="48" viewBox="0 0 48 48" fill="none" xmlns="http://www.w3.org/2000/svg">
<path d="M32.5472 12.2373C32.1028 11.7116 32.0664 10.9302 32.5012 10.3602C33.0034 9.7015 33.9448 9.57476 34.6034 10.0771C38.9164 13.3664 41.5 18.4705 41.5 24C41.5 33.1806 34.4308 40.71 25.4388 41.4416L26.9394 42.9394L27.0846 43.1076C27.5202 43.6948 27.4718 44.5282 26.9394 45.0606C26.3536 45.6464 25.4038 45.6464 24.818 45.0606L20.818 41.0606L20.6728 40.8924C20.237 40.3052 20.2854 39.4718 20.818 38.9394L21.4438 38.3136C22.2738 38.4608 23.128 38.5376 24.0002 38.5376C32.0296 38.5376 38.5386 32.0286 38.5386 23.9992C38.5386 19.1642 36.1782 14.8805 32.5472 12.2373ZM26.5576 9.68512C25.7274 9.5378 24.8728 9.46094 24.0002 9.46094C15.9709 9.46094 9.46192 15.97 9.46192 23.9992C9.46192 28.6284 11.6255 32.7524 14.9966 35.4148C15.4239 35.9576 15.4312 36.7428 14.9734 37.297C14.4458 37.9358 13.5003 38.0258 12.8616 37.4982C8.86252 34.1948 6.5 29.289 6.5 24C6.5 14.8202 13.5682 7.2912 22.5592 6.55846L21.0606 5.06066C20.4748 4.47488 20.4748 3.52512 21.0606 2.93934C21.6464 2.35356 22.5962 2.35356 23.182 2.93934L27.182 6.93934C27.7678 7.52512 27.7678 8.47488 27.182 9.06066L26.5576 9.68512ZM18.9393 18.9393C19.5251 18.3536 20.4748 18.3536 21.0606 18.9393L24 21.8786L26.9394 18.9393C27.5252 18.3536 28.4748 18.3536 29.0606 18.9393C29.6464 19.5251 29.6464 20.4748 29.0606 21.0606L26.1214 24L29.0606 26.9394C29.6464 27.5252 29.6464 28.4748 29.0606 29.0606C28.4748 29.6464 27.5252 29.6464 26.9394 29.0606L24 26.1214L21.0606 29.0606C20.4748 29.6464 19.5251 29.6464 18.9393 29.0606C18.3536 28.4748 18.3536 27.5252 18.9393 26.9394L21.8786 24L18.9393 21.0606C18.3536 20.4748 18.3536 19.5251 18.9393 18.9393ZM24 36C30.6274 36 36 30.6274 36 24C36 17.3726 30.6274 12 24 12C17.3726 12 12 17.3726 12 24C12 30.6274 17.3726 36 24 36ZM24 33C19.0294 33 15 28.9706 15 24C15 19.0294 19.0294 15 24 15C28.9706 15 33 19.0294 33 24C33 28.9706 28.9706 33 24 33Z" fill="#004BB8"/>
</svg>
