<svg width="48" height="48" viewBox="0 0 48 48" fill="none" xmlns="http://www.w3.org/2000/svg">
<path d="M31.56 7.47432C30.5532 7.1023 29.4468 7.1023 28.44 7.47432L19.8267 10.6575C19.6304 10.7301 19.5 10.9172 19.5 11.1265V16.7129C18.5064 16.554 17.4936 16.554 16.5 16.7129V11.1265C16.5 9.66142 17.4125 8.35138 18.7867 7.8435L27.4002 4.66034C29.078 4.0403 30.922 4.0403 32.5998 4.66034L41.2132 7.8435C42.5874 8.35138 43.5 9.66142 43.5 11.1265V25.1616C42.5996 24.3828 41.591 23.7256 40.5 23.2154V11.1265C40.5 10.9172 40.3696 10.7301 40.1734 10.6575L31.56 7.47432ZM29.2132 22.242C29.6154 22.3906 29.978 22.6078 30.2898 22.8776C29.1426 23.3238 28.0744 23.928 27.112 24.6638L19.5599 21.8728C18.5532 21.5008 17.4468 21.5008 16.4401 21.8728L7.82668 25.056C7.63036 25.1284 7.5 25.3156 7.5 25.525V36.865C7.5 37.0742 7.63036 37.2614 7.82668 37.334L16.4401 40.5172C17.4468 40.8892 18.5532 40.8892 19.5599 40.5172L22.743 39.3408C23.0828 40.2996 23.5318 41.2066 24.075 42.0468L20.5998 43.3312C18.9221 43.9512 17.0779 43.9512 15.4002 43.3312L6.78674 40.148C5.4125 39.6402 4.5 38.33 4.5 36.865V25.525C4.5 24.0598 5.4125 22.7498 6.78674 22.242L15.4002 19.0588C17.0779 18.4387 18.9221 18.4387 20.5998 19.0588L29.2132 22.242ZM23.4636 26.4998C23.9848 26.319 24.538 26.4426 24.9294 26.7766C24.1814 27.6918 23.5556 28.7108 23.077 29.8086L19.4998 31.0482V36.4468C19.4998 37.2752 18.8282 37.9468 17.9998 37.9468C17.1713 37.9468 16.4998 37.2752 16.4998 36.4468V31.049L11.5384 29.3342C10.7554 29.0634 10.3401 28.2094 10.6108 27.4264C10.8814 26.6434 11.7355 26.228 12.5185 26.4988L17.9992 28.3932L23.4636 26.4998ZM23.5384 15.3341C22.7554 15.0635 22.3402 14.2094 22.6108 13.4264C22.8814 12.6434 23.7356 12.2281 24.5186 12.4987L29.8356 14.3366C29.9416 14.3733 30.0568 14.3732 30.1626 14.3365L35.4636 12.4997C36.2464 12.2285 37.1008 12.6432 37.372 13.4259C37.6432 14.2087 37.2286 15.0631 36.4458 15.3344L31.145 17.1712C30.4034 17.4281 29.5972 17.4284 28.8556 17.172L23.5384 15.3341ZM46 34.998C46 41.0732 41.0752 45.998 35 45.998C28.9248 45.998 24 41.0732 24 34.998C24 28.923 28.9248 23.998 35 23.998C41.0752 23.998 46 28.923 46 34.998ZM41.7072 30.291C41.3166 29.9004 40.6834 29.9004 40.2928 30.291L33 37.5838L29.7072 34.291C29.3166 33.9004 28.6834 33.9004 28.2928 34.291C27.9024 34.6814 27.9024 35.3146 28.2928 35.7052L32.2928 39.7052C32.6834 40.0956 33.3166 40.0956 33.7072 39.7052L41.7072 31.7052C42.0976 31.3146 42.0976 30.6814 41.7072 30.291Z" fill="#004BB8"/>
</svg>
