<svg width="48" height="48" viewBox="0 0 48 48" fill="none" xmlns="http://www.w3.org/2000/svg">
<path d="M22.9394 4.43934C23.5252 3.85356 24.4748 3.85356 25.0606 4.43934C25.8668 5.24548 29.0572 8.6947 32.0578 13.1638C35.0168 17.5709 38 23.2698 38 28.5C38 33.5472 36.5072 37.4574 33.9112 40.1114C31.3176 42.7628 27.7788 44 24 44C20.2212 44 16.6824 42.7628 14.0889 40.1114C11.4928 37.4574 10 33.5472 10 28.5C10 23.2698 12.9832 17.5709 15.9422 13.1638C18.9429 8.6947 22.1332 5.24548 22.9394 4.43934ZM18.4328 14.8361C15.5168 19.1791 13 24.2302 13 28.5C13 32.9528 14.3054 36.0426 16.2335 38.0136C18.164 39.9872 20.8754 41 24 41C27.1246 41 29.836 39.9872 31.7666 38.0136C33.6946 36.0426 35 32.9528 35 28.5C35 24.2302 32.4832 19.1791 29.5672 14.8362C27.4858 11.7361 25.307 9.15006 24 7.69576C22.693 9.15006 20.5142 11.7361 18.4328 14.8361Z" fill="#004BB8"/>
</svg>
