<svg width="48" height="48" viewBox="0 0 48 48" fill="none" xmlns="http://www.w3.org/2000/svg">
<g clip-path="url(#clip0_47_469)">
<path d="M24 31C27.866 31 31 27.866 31 24C31 20.134 27.866 17 24 17C20.134 17 17 20.134 17 24C17 27.866 20.134 31 24 31Z" stroke="#004BB8" stroke-width="3" stroke-miterlimit="10" stroke-linecap="square"/>
<path d="M46 24C46.0001 23.1821 45.6927 22.3941 45.1388 21.7922C44.5849 21.1904 43.8251 20.8187 43.01 20.751L39.6 20.466C39.1994 18.6962 38.4986 17.0082 37.528 15.475L39.745 12.855C40.2733 12.2308 40.5477 11.4309 40.5138 10.6138C40.4799 9.79676 40.1402 9.02229 39.562 8.444V8.444C38.9837 7.86582 38.2092 7.52609 37.3922 7.4922C36.5751 7.4583 35.7752 7.73271 35.151 8.261L32.531 10.478C30.9965 9.50445 29.3063 8.80157 27.534 8.4L27.249 4.99C27.1813 4.17491 26.8096 3.41506 26.2078 2.8612C25.6059 2.30735 24.8179 1.99995 24 2V2C23.1821 1.99995 22.3941 2.30735 21.7922 2.8612C21.1904 3.41506 20.8187 4.17491 20.751 4.99L20.466 8.4C18.6962 8.80063 17.0082 9.50143 15.475 10.472L12.855 8.26C12.2308 7.73171 11.4309 7.4573 10.6138 7.4912C9.79676 7.52509 9.02229 7.86482 8.444 8.443V8.443C7.86582 9.02129 7.52609 9.79576 7.4922 10.6128C7.4583 11.4299 7.73271 12.2298 8.261 12.854L10.478 15.474C9.50497 17.0069 8.80211 18.6954 8.4 20.466L4.985 20.751C4.17081 20.8199 3.41218 21.1921 2.85936 21.7938C2.30654 22.3955 1.99984 23.1829 2 24V24C1.99995 24.8179 2.30735 25.6059 2.8612 26.2078C3.41506 26.8096 4.17491 27.1813 4.99 27.249L8.405 27.534C8.80563 29.3038 9.50643 30.9918 10.477 32.525L8.26 35.145C7.73171 35.7692 7.4573 36.5691 7.4912 37.3862C7.52509 38.2032 7.86482 38.9777 8.443 39.556V39.556C9.02129 40.1342 9.79576 40.4739 10.6128 40.5078C11.4299 40.5417 12.2298 40.2673 12.854 39.739L15.474 37.522C17.0069 38.495 18.6954 39.1979 20.466 39.6L20.751 43.015C20.8199 43.8292 21.1921 44.5878 21.7938 45.1406C22.3955 45.6935 23.1829 46.0002 24 46C24.8179 46.0001 25.6059 45.6927 26.2078 45.1388C26.8096 44.5849 27.1813 43.8251 27.249 43.01L27.534 39.595C29.3038 39.1944 30.9918 38.4936 32.525 37.523L35.145 39.74C35.7692 40.2683 36.5691 40.5427 37.3862 40.5088C38.2032 40.4749 38.9777 40.1352 39.556 39.557C40.1342 38.9787 40.4739 38.2042 40.5078 37.3872C40.5417 36.5701 40.2673 35.7702 39.739 35.146L37.522 32.526C38.495 30.9931 39.1979 29.3046 39.6 27.534L43.015 27.249C43.8292 27.1801 44.5878 26.8079 45.1406 26.2062C45.6935 25.6045 46.0002 24.8171 46 24Z" stroke="#004BB8" stroke-width="3" stroke-miterlimit="10" stroke-linecap="square"/>
</g>
<defs>
<clipPath id="clip0_47_469">
<rect width="48" height="48" fill="white"/>
</clipPath>
</defs>
</svg>
