<svg width="48" height="48" viewBox="0 0 48 48" fill="none" xmlns="http://www.w3.org/2000/svg">
<g clip-path="url(#clip0_47_465)">
<path d="M40 27C40 30.7578 38.8857 34.4313 36.7979 37.5558C34.7102 40.6804 31.7428 43.1156 28.271 44.5537C24.7992 45.9918 20.9789 46.368 17.2933 45.6349C13.6077 44.9018 10.2222 43.0922 7.56498 40.435C4.90778 37.7778 3.09821 34.3924 2.36509 30.7067C1.63197 27.0211 2.00823 23.2008 3.4463 19.729C4.88436 16.2572 7.31964 13.2898 10.4442 11.2021C13.5687 9.11433 17.2422 8 21 8" stroke="#004BB8" stroke-width="3" stroke-miterlimit="10" stroke-linecap="round" stroke-linejoin="round"/>
<path d="M31.956 34C30.9085 35.6379 29.5069 37.0199 27.8545 38.0444C26.2021 39.0689 24.341 39.7097 22.4081 39.9197C20.4753 40.1296 18.5199 39.9034 16.6861 39.2576C14.8523 38.6118 13.1867 37.5629 11.8119 36.1881C10.4371 34.8133 9.38821 33.1477 8.74241 31.3139C8.0966 29.48 7.87034 27.5247 8.08029 25.5919C8.29024 23.659 8.93106 21.7979 9.95554 20.1455C10.98 18.4931 12.3621 17.0915 14 16.044" stroke="#004BB8" stroke-width="3" stroke-miterlimit="10" stroke-linecap="round" stroke-linejoin="round"/>
<path d="M34 27H46C45.9926 20.3719 43.3563 14.0173 38.6695 9.33052C33.9827 4.64371 27.6281 2.00741 21 2V14C24.4466 14.004 27.7509 15.3749 30.188 17.812C32.6251 20.2491 33.996 23.5534 34 27V27Z" stroke="#004BB8" stroke-width="3" stroke-miterlimit="10" stroke-linecap="round" stroke-linejoin="round"/>
</g>
<defs>
<clipPath id="clip0_47_465">
<rect width="48" height="48" fill="white"/>
</clipPath>
</defs>
</svg>
