<svg width="48" height="48" viewBox="0 0 48 48" fill="none" xmlns="http://www.w3.org/2000/svg">
<g clip-path="url(#clip0_47_478)">
<path d="M47.2977 10.8909C46.5461 10.1146 45.7698 9.35073 45.0059 8.58682C44.2173 7.8106 43.7491 7.79827 42.9605 8.58682C41.0383 10.5089 41.5928 9.95446 39.6707 11.8765C38.8205 12.7267 38.1551 12.739 37.2433 11.9628C34.9885 10.0407 32.4133 9.52322 29.6163 10.4473C28.6429 10.7677 27.7681 11.3837 26.7207 11.9258C26.5729 11.7657 26.3511 11.47 26.0924 11.2235C25.5132 10.6691 24.9465 10.6568 24.3673 11.2359C24.0839 11.5069 23.8622 11.8396 23.628 12.123C21.6073 10.5952 19.0937 10.8539 17.455 12.6528C16.7403 13.4413 15.9517 14.1683 15.2001 14.9199C11.7378 18.3821 8.28777 21.8443 4.8131 25.3065C3.76577 26.3415 3.2113 27.5736 3.47006 29.0275C3.59327 29.7791 3.96292 30.4937 4.22167 31.2206C4.16006 31.4424 3.92595 31.6519 3.71649 31.8736C2.95255 32.6375 2.95255 33.1304 3.70416 33.882C3.92595 34.0914 4.19702 34.2639 4.4681 34.4611C3.07577 35.841 1.81897 37.0978 0.5745 38.3545C-0.189434 39.1184 -0.189434 39.5989 0.562178 40.3629C1.3754 41.176 2.18862 41.9892 3.00184 42.8024C3.82738 43.6279 4.28328 43.6279 5.10882 42.7901C6.35329 41.5457 7.59776 40.3136 8.90384 38.9952C9.17492 39.2909 9.40902 39.5866 9.6801 39.8454C10.2592 40.3875 10.789 40.3998 11.3681 39.8454C11.6515 39.5743 11.9103 39.2786 12.169 38.9952C12.3046 39.0815 12.3785 39.1184 12.4524 39.1554C14.3253 40.3875 16.4693 40.1904 18.0587 38.6009C22.3713 34.3009 26.6961 30.0008 30.9717 25.6638C31.4522 25.1833 31.8588 24.5426 32.0929 23.9019C32.6351 22.4603 32.3147 21.0927 31.292 19.7743C31.5754 19.5402 31.8835 19.3185 32.1422 19.0474C32.746 18.4314 32.746 17.8769 32.1299 17.2485C31.9081 17.0144 31.6494 16.805 31.3783 16.5462C31.9574 16.2752 32.4379 16.2505 32.8938 16.5832C33.1895 16.7927 33.436 17.0514 33.7317 17.2732C36.886 19.6142 41.1492 19.3308 43.9339 16.5586C45.8684 14.6365 45.3262 15.1663 47.2484 13.2319C47.5195 12.9608 47.7536 12.6281 48 12.3324C48 12.1353 48 11.9382 48 11.741C47.7905 11.4576 47.5687 11.1496 47.2977 10.8909ZM45.1291 12.394C43.4534 14.0697 44.205 13.2319 42.5909 14.9568C40.5825 17.113 36.578 17.1746 34.5572 15.1909C33.4853 14.1436 31.6863 13.7247 29.9367 14.9445L28.877 15.8932C28.5936 16.152 28.569 16.5955 28.8277 16.8789C29.222 17.3101 29.6533 17.803 30.0229 18.1726C29.8134 18.3821 29.5917 18.6162 29.3699 18.8503C28.6429 19.5772 28.6306 20.107 29.3699 20.8216C29.9736 21.4007 30.3926 22.0661 30.1831 22.9039C30.0722 23.3475 29.8504 23.8157 29.5301 24.136C25.2052 28.4977 20.868 32.8347 16.5185 37.1717C15.5698 38.1081 14.3253 38.0835 13.3642 37.1471C13.2533 37.0485 13.1548 36.9376 13.0562 36.839C12.514 36.3462 11.9473 36.3339 11.4051 36.839C11.1217 37.1101 10.8753 37.4181 10.6289 37.7015C10.2099 37.2703 9.77867 36.8513 9.37206 36.4324C9.10099 36.1614 8.65741 36.1614 8.38634 36.4324L7.30205 37.5167C7.30205 37.5167 7.30205 37.5167 7.31437 37.529C6.2424 38.5886 5.14578 39.6729 4.04917 40.7571C3.61791 40.3136 3.1497 39.833 2.71844 39.3895C3.79041 38.3299 4.87471 37.2456 5.97132 36.1614C5.97132 36.1614 5.97132 36.1614 5.98364 36.1737L7.05562 35.1018C7.32669 34.8307 7.32669 34.3871 7.05562 34.1161C6.62436 33.6848 6.19311 33.2536 5.74954 32.81C6.00829 32.5759 6.304 32.3418 6.57508 32.0831C7.12954 31.504 7.12954 30.9372 6.57508 30.3581C6.43954 30.2103 6.29168 30.0871 6.16847 29.9392C5.37989 29.0275 5.37989 27.9555 6.15615 27.0438C6.26704 26.9206 6.37793 26.8097 6.50115 26.6865C10.6905 22.4973 14.8798 18.3081 19.0814 14.119C20.3012 12.8992 21.4225 12.8992 22.667 14.1067C23.357 14.7843 23.8868 14.7843 24.5645 14.1067C24.7986 13.8726 24.9957 13.6138 25.2175 13.3428C25.6118 13.737 25.9938 14.119 26.3757 14.5133C26.6345 14.772 27.0411 14.7843 27.3245 14.5502L28.5443 13.5152C29.2467 12.8376 30.1215 12.4433 31.1072 12.2708C32.9678 11.9382 34.6065 12.394 36.0358 13.6631C37.576 15.0431 39.6583 14.9691 41.1246 13.5152C42.788 11.8642 41.9748 12.6528 43.6382 10.9894C43.7614 10.8662 43.8969 10.743 44.0325 10.6198C44.55 11.125 45.0182 11.5808 45.5111 12.0614C45.3386 12.1599 45.24 12.2831 45.1291 12.394Z" fill="#004BB8" stroke="#004BB8" stroke-width="0.5"/>
</g>
<defs>
<clipPath id="clip0_47_478">
<rect width="48" height="48" fill="white"/>
</clipPath>
</defs>
</svg>
