<svg width="48" height="48" viewBox="0 0 48 48" fill="none" xmlns="http://www.w3.org/2000/svg">
<g clip-path="url(#clip0_47_482)">
<path d="M24 46C36.1503 46 46 36.1503 46 24C46 11.8497 36.1503 2 24 2C11.8497 2 2 11.8497 2 24C2 36.1503 11.8497 46 24 46Z" stroke="#004BB8" stroke-width="3" stroke-miterlimit="10" stroke-linecap="square"/>
<path d="M30.5 24C30.5 27.5899 27.5899 30.5 24 30.5C20.4101 30.5 17.5 27.5899 17.5 24C17.5 20.4101 20.4101 17.5 24 17.5C27.5899 17.5 30.5 20.4101 30.5 24Z" stroke="#004BB8" stroke-width="3" stroke-miterlimit="10" stroke-linecap="square"/>
<path d="M24 10.875C24.5178 10.875 24.9375 10.4553 24.9375 9.9375C24.9375 9.41973 24.5178 9 24 9C23.4822 9 23.0625 9.41973 23.0625 9.9375C23.0625 10.4553 23.4822 10.875 24 10.875Z" stroke="#004BB8" stroke-width="2" stroke-miterlimit="10" stroke-linecap="square"/>
<path d="M34.6062 14.7184C34.9723 14.3523 34.9723 13.7587 34.6062 13.3926C34.2401 13.0265 33.6465 13.0265 33.2803 13.3926C32.9142 13.7587 32.9142 14.3523 33.2803 14.7184C33.6465 15.0845 34.2401 15.0845 34.6062 14.7184Z" stroke="#004BB8" stroke-width="2" stroke-miterlimit="10" stroke-linecap="square"/>
<path d="M38.0625 24.9375C38.5803 24.9375 39 24.5178 39 24C39 23.4822 38.5803 23.0625 38.0625 23.0625C37.5447 23.0625 37.125 23.4822 37.125 24C37.125 24.5178 37.5447 24.9375 38.0625 24.9375Z" stroke="#004BB8" stroke-width="2" stroke-miterlimit="10" stroke-linecap="square"/>
<path d="M34.6068 34.6071C34.9729 34.241 34.9729 33.6474 34.6068 33.2812C34.2407 32.9151 33.6471 32.9151 33.281 33.2812C32.9148 33.6474 32.9148 34.241 33.281 34.6071C33.6471 34.9732 34.2407 34.9732 34.6068 34.6071Z" stroke="#004BB8" stroke-width="2" stroke-miterlimit="10" stroke-linecap="square"/>
<path d="M24 39C24.5178 39 24.9375 38.5803 24.9375 38.0625C24.9375 37.5447 24.5178 37.125 24 37.125C23.4822 37.125 23.0625 37.5447 23.0625 38.0625C23.0625 38.5803 23.4822 39 24 39Z" stroke="#004BB8" stroke-width="2" stroke-miterlimit="10" stroke-linecap="square"/>
<path d="M14.7188 34.6074C15.085 34.2413 15.085 33.6477 14.7188 33.2816C14.3527 32.9155 13.7591 32.9155 13.393 33.2816C13.0269 33.6477 13.0269 34.2413 13.393 34.6074C13.7591 34.9735 14.3527 34.9735 14.7188 34.6074Z" stroke="#004BB8" stroke-width="2" stroke-miterlimit="10" stroke-linecap="square"/>
<path d="M9.9375 24.9375C10.4553 24.9375 10.875 24.5178 10.875 24C10.875 23.4822 10.4553 23.0625 9.9375 23.0625C9.41973 23.0625 9 23.4822 9 24C9 24.5178 9.41973 24.9375 9.9375 24.9375Z" stroke="#004BB8" stroke-width="2" stroke-miterlimit="10" stroke-linecap="square"/>
<path d="M14.7186 14.7188C15.0847 14.3526 15.0847 13.759 14.7186 13.3929C14.3525 13.0268 13.7589 13.0268 13.3928 13.3929C13.0267 13.759 13.0267 14.3526 13.3928 14.7188C13.7589 15.0849 14.3525 15.0849 14.7186 14.7188Z" stroke="#004BB8" stroke-width="2" stroke-miterlimit="10" stroke-linecap="square"/>
</g>
<defs>
<clipPath id="clip0_47_482">
<rect width="48" height="48" fill="white"/>
</clipPath>
</defs>
</svg>
