<svg width="48" height="48" viewBox="0 0 48 48" fill="none" xmlns="http://www.w3.org/2000/svg">
<path d="M37.4417 10.5711C35.6821 8.80056 33.5888 7.39657 31.2831 6.44032C28.9773 5.48408 26.5049 4.99457 24.0087 5.00011H24C18.9622 5.00011 14.1307 7.0008 10.5678 10.5623C7.0048 14.1237 5.0021 18.9544 5 23.9922C5 24.4121 5.16681 24.8148 5.46375 25.1118C5.76068 25.4087 6.16341 25.5755 6.58333 25.5755C7.00326 25.5755 7.40598 25.4087 7.70292 25.1118C7.99985 24.8148 8.16666 24.4121 8.16666 23.9922C8.16876 19.7943 9.83784 15.7691 12.8069 12.8014C15.776 9.83383 19.8021 8.16677 24 8.16677H24.0079C28.2072 8.16772 32.234 9.83677 35.2027 12.8068C38.1713 15.7768 39.8386 19.8044 39.8376 24.0036C39.8367 28.2029 38.1676 32.2298 35.1977 35.1985C32.2277 38.1671 28.2 39.8343 24.0008 39.8334H23.9936C20.9787 39.822 18.0294 38.9518 15.4912 37.3246L18.0672 35.1396C18.1771 35.0467 18.2596 34.9255 18.3058 34.7892C18.352 34.6528 18.3601 34.5065 18.3293 34.3659C18.2986 34.2253 18.23 34.0957 18.1311 33.9911C18.0322 33.8866 17.9067 33.811 17.768 33.7724L8.75408 31.262C8.62838 31.227 8.49597 31.2235 8.36861 31.252C8.24125 31.2804 8.12291 31.3399 8.0241 31.4252C7.9253 31.5104 7.8491 31.6188 7.80229 31.7406C7.75547 31.8624 7.7395 31.9939 7.75579 32.1234L8.91004 41.3019C8.92782 41.4435 8.98351 41.5776 9.07123 41.6901C9.15894 41.8026 9.27542 41.8893 9.40835 41.941C9.54128 41.9927 9.68572 42.0076 9.82641 41.984C9.96709 41.9604 10.0988 41.8993 10.2076 41.807L12.9689 39.4645C16.1879 41.7567 20.0395 42.9922 23.9913 43.0001H24C27.7572 43.0002 31.43 41.8864 34.5543 39.7995C37.6786 37.7125 40.114 34.7461 41.5526 31.2753C42.9913 27.8045 43.3686 23.985 42.6368 20.2998C41.9051 16.6145 40.0972 13.229 37.4417 10.5711Z" fill="#004BB8"/>
<path d="M35.4791 25.1797C35.7941 25.1797 36.0961 25.0546 36.3188 24.8319C36.5415 24.6092 36.6666 24.3071 36.6666 23.9922C36.6666 23.6773 36.5415 23.3752 36.3188 23.1525C36.0961 22.9298 35.7941 22.8047 35.4791 22.8047L25.5302 22.4619L25.1875 12.513C25.1875 12.1981 25.0623 11.8961 24.8396 11.6734C24.6169 11.4507 24.3149 11.3255 24 11.3255C23.685 11.3255 23.383 11.4507 23.1603 11.6734C22.9376 11.8961 22.8125 12.1981 22.8125 12.513L22.4166 23.9922C22.4166 24.4121 22.5834 24.8148 22.8804 25.1118C23.1773 25.4087 23.58 25.5755 24 25.5755L35.4791 25.1797Z" fill="#004BB8"/>
</svg>
