<svg width="48" height="48" viewBox="0 0 48 48" fill="none" xmlns="http://www.w3.org/2000/svg">
<path d="M20.3976 15.5C20.3976 9.14872 25.5464 4 31.8976 4C33.7894 4 35.5786 4.45796 37.1564 5.27038C37.5822 5.4897 37.8776 5.8992 37.9516 6.3725C38.0256 6.84578 37.869 7.3259 37.5302 7.66462L31.9986 13.1962L34.12 15.3175L39.677 9.76038C40.0136 9.42394 40.4896 9.26706 40.9602 9.33764C41.4308 9.4082 41.84 9.69786 42.0628 10.1182C42.9154 11.7255 43.3976 13.5587 43.3976 15.5C43.3976 21.8512 38.249 27 31.8976 27C30.9766 27 30.0792 26.8914 29.2182 26.6858L14.4885 41.9236C12.2449 44.2444 8.5817 44.4162 6.13076 42.3154C3.46332 40.029 3.27288 35.9682 5.71464 33.4422L20.6652 17.976C20.4898 17.1775 20.3976 16.3488 20.3976 15.5ZM31.8976 7C27.2032 7 23.3976 10.8056 23.3976 15.5C23.3976 16.3639 23.526 17.1951 23.7638 17.977C23.9222 18.4982 23.7858 19.0643 23.4072 19.4559L7.87162 35.5272C6.63042 36.8112 6.72722 38.8754 8.08314 40.0376C9.329 41.1056 11.1911 41.0182 12.3315 39.8384L27.6844 23.9562C28.0844 23.5424 28.686 23.394 29.2326 23.5742C30.069 23.85 30.9644 24 31.8976 24C36.592 24 40.3976 20.1944 40.3976 15.5C40.3976 14.8157 40.317 14.1512 40.165 13.5151L35.1806 18.4995C34.5948 19.0852 33.6452 19.0852 33.0594 18.4995L28.8166 14.2568C28.231 13.671 28.231 12.7213 28.8166 12.1355L33.75 7.2021C33.1544 7.06982 32.5346 7 31.8976 7Z" fill="white"/>
</svg>
