<svg width="48" height="49" viewBox="0 0 48 49" fill="none" xmlns="http://www.w3.org/2000/svg">
<path d="M33.3046 4.0357C32.0655 3.57783 30.7038 3.57783 29.4646 4.0357L18.8636 7.95347C18.622 8.04277 18.4615 8.2731 18.4615 8.5307V15.4063C17.2386 15.2107 15.9921 15.2107 14.7692 15.4063V8.5307C14.7692 6.72752 15.8923 5.11516 17.5837 4.49008L28.1849 0.572345C30.2498 -0.190782 32.5194 -0.190782 34.5844 0.572345L45.1855 4.49008C46.8768 5.11516 48 6.72752 48 8.5307V34.7954C48 36.5985 46.8768 38.2108 45.1855 38.836L35.2965 42.4905C35.554 41.7717 35.6923 41.002 35.6923 40.2089V38.408L43.9057 35.3727C44.1472 35.2833 44.3077 35.0529 44.3077 34.7954V8.5307C44.3077 8.2731 44.1472 8.04277 43.9057 7.95347L33.3046 4.0357ZM23.4319 13.7093C22.4682 13.3762 21.9572 12.325 22.2902 11.3613C22.6233 10.3977 23.6746 9.88649 24.6383 10.2196L31.1823 12.4816C31.3127 12.5267 31.4545 12.5267 31.5847 12.4815L38.109 10.2208C39.0725 9.88698 40.1241 10.3974 40.4579 11.3608C40.7916 12.3242 40.2814 13.3758 39.3179 13.7096L32.7938 15.9703C31.8811 16.2865 30.8889 16.2869 29.9761 15.9714L23.4319 13.7093ZM8.66267 30.9402C7.699 30.6069 7.18784 29.5558 7.52094 28.5921C7.85403 27.6284 8.90526 27.1172 9.86892 27.4504L16.6144 29.782L23.3398 27.4517C24.3033 27.1176 25.3548 27.6282 25.6886 28.5916C26.0224 29.5548 25.5121 30.6066 24.5487 30.9404L18.4613 33.0497V39.6941C18.4613 40.7137 17.6347 41.5403 16.6151 41.5403C15.5955 41.5403 14.769 40.7137 14.769 39.6941V33.0507L8.66267 30.9402ZM19.8151 18.2935C17.7502 17.5304 15.4805 17.5304 13.4156 18.2935L2.81445 22.2113C1.12308 22.8363 0 24.4486 0 26.2519V40.2089C0 42.0119 1.12308 43.6245 2.81445 44.2495L13.4156 48.1673C15.4805 48.9303 17.7502 48.9303 19.8151 48.1673L30.4162 44.2495C32.1076 43.6245 33.2308 42.0119 33.2308 40.2089V26.2519C33.2308 24.4486 32.1076 22.8363 30.4162 22.2113L19.8151 18.2935ZM14.6955 21.7569C15.9345 21.2991 17.2963 21.2991 18.5353 21.7569L29.1365 25.6747C29.378 25.7638 29.5385 25.9942 29.5385 26.2519V40.2089C29.5385 40.4663 29.378 40.6967 29.1365 40.7861L18.5353 44.7039C17.2963 45.1617 15.9345 45.1617 14.6955 44.7039L4.09438 40.7861C3.85275 40.6967 3.69231 40.4663 3.69231 40.2089V26.2519C3.69231 25.9942 3.85275 25.7638 4.09438 25.6747L14.6955 21.7569Z" fill="#004BB8"/>
</svg>
